<?xml version="1.0" standalone="no"?><!-- Generator: Gravit.io --><svg xmlns="http://www.w3.org/2000/svg" xmlns:xlink="http://www.w3.org/1999/xlink" style="isolation:isolate" viewBox="716.8 417.3 196.4 196.4" width="196.4" height="196.4"><defs><clipPath id="_clipPath_mQnsy3DQOinu18xSMal42zUKWkcREZFo"><rect x="716.8" y="417.3" width="196.4" height="196.4"/></clipPath></defs><g clip-path="url(#_clipPath_mQnsy3DQOinu18xSMal42zUKWkcREZFo)"><path d=" M 815 419 C 761.7 419 718.5 462.2 718.5 515.5 C 718.5 568.8 761.7 612 815 612 C 868.3 612 911.5 568.8 911.5 515.5 C 911.5 462.2 868.3 419 815 419 Z  M 815 522.1 C 811.3 522.1 808.4 519.1 808.4 515.5 C 808.4 511.9 811.4 508.9 815 508.9 C 818.6 508.9 821.6 511.9 821.6 515.5 C 821.6 519.1 818.7 522.1 815 522.1 Z " fill="rgb(109,126,143)"/><path d=" M 815 549.5 C 808.9 549.5 803.1 547.9 798.1 545 L 784.3 607 C 793.9 610.2 804.3 612 815 612 C 825.7 612 836 610.2 845.7 607 L 831.9 545 C 826.9 547.9 821.2 549.5 815 549.5 Z " fill="rgb(139,153,165)"/><path d=" M 830.6 539.1 L 828.3 528.8 L 801.8 528.8 L 799.5 539.1 C 804 542.1 809.3 543.8 815.1 543.8 C 820.9 543.8 826.1 542.1 830.6 539.1 Z " fill="rgb(139,153,165)"/><path d=" M 828.3 502.2 L 830.6 491.9 C 826.1 488.9 820.8 487.2 815 487.2 C 809.2 487.2 803.9 488.9 799.4 491.9 L 801.7 502.2 L 828.3 502.2 Z " fill="rgb(139,153,165)"/><path d=" M 815 481.4 C 821.1 481.4 826.9 483 831.9 485.9 L 845.7 423.9 C 836.1 420.7 825.7 418.9 815 418.9 C 804.3 418.9 794 420.7 784.3 423.9 L 798.1 485.9 C 803.1 483.1 808.9 481.4 815 481.4 Z " fill="rgb(139,153,165)"/><path d=" M 815 613.7 C 788.8 613.7 764.1 603.5 745.6 584.9 C 727 566.3 716.8 541.7 716.8 515.5 C 716.8 489.3 727 464.6 745.6 446.1 C 764.2 427.5 788.8 417.3 815 417.3 C 841.2 417.3 865.9 427.5 884.4 446.1 C 903 464.7 913.2 489.3 913.2 515.5 C 913.2 541.7 903 566.4 884.4 584.9 C 865.9 603.5 841.3 613.7 815 613.7 Z  M 815 420.6 C 762.7 420.6 720.1 463.2 720.1 515.5 C 720.1 567.8 762.7 610.4 815 610.4 C 867.3 610.4 909.9 567.8 909.9 515.5 C 909.9 463.2 867.3 420.6 815 420.6 Z  M 815 523.8 C 810.4 523.8 806.7 520.1 806.7 515.5 C 806.7 510.9 810.4 507.2 815 507.2 C 819.6 507.2 823.3 510.9 823.3 515.5 C 823.3 520.1 819.6 523.8 815 523.8 Z  M 815 510.5 C 812.3 510.5 810 512.7 810 515.5 C 810 518.3 812.2 520.5 815 520.5 C 817.7 520.5 820 518.3 820 515.5 C 820 512.7 817.8 510.5 815 510.5 Z " fill="rgb(47,5,87)"/><path d=" M 815 487.2 C 799.4 487.2 786.8 499.8 786.8 515.4 C 786.8 531 799.4 543.6 815 543.6 C 830.6 543.6 843.2 531 843.2 515.4 C 843.3 499.9 830.6 487.2 815 487.2 Z  M 815 522.1 C 811.3 522.1 808.4 519.1 808.4 515.5 C 808.4 511.9 811.4 508.9 815 508.9 C 818.6 508.9 821.6 511.9 821.6 515.5 C 821.6 519.1 818.7 522.1 815 522.1 Z " fill="rgb(41,128,185)"/><path d=" M 815 545.4 C 798.5 545.4 785.1 532 785.1 515.5 C 785.1 499 798.5 485.6 815 485.6 C 831.5 485.6 844.9 499 844.9 515.5 C 844.9 532 831.5 545.4 815 545.4 Z  M 815 488.9 C 800.4 488.9 788.4 500.8 788.4 515.5 C 788.4 530.2 800.3 542.1 815 542.1 C 829.6 542.1 841.6 530.2 841.6 515.5 C 841.6 500.8 829.7 488.9 815 488.9 Z  M 815 523.8 C 810.4 523.8 806.7 520.1 806.7 515.5 C 806.7 510.9 810.4 507.2 815 507.2 C 819.6 507.2 823.3 510.9 823.3 515.5 C 823.3 520.1 819.6 523.8 815 523.8 Z  M 815 510.5 C 812.3 510.5 810 512.7 810 515.5 C 810 518.3 812.2 520.5 815 520.5 C 817.7 520.5 820 518.3 820 515.5 C 820 512.7 817.8 510.5 815 510.5 Z " fill="rgb(47,5,87)"/><path d=" M 809.3 496.3 C 808.9 496.3 808.5 496 808.3 495.6 C 808.1 495.1 808.5 494.5 809 494.4 C 810.9 493.9 813 493.6 815 493.6 C 815.6 493.6 816 494.1 816 494.6 C 816 495.1 815.5 495.6 815 495.6 C 813.2 495.6 811.3 495.9 809.6 496.3 C 809.5 496.3 809.4 496.3 809.3 496.3 Z " fill="rgb(41,111,185)"/><path d=" M 794 516.5 C 793.4 516.5 793 516 793 515.5 C 793 507.9 796.9 500.9 803.3 496.8 C 803.8 496.5 804.4 496.6 804.7 497.1 C 805 497.6 804.9 498.2 804.4 498.5 C 798.5 502.2 795 508.5 795 515.4 C 795 516 794.6 516.5 794 516.5 Z " fill="rgb(41,111,185)"/><path d=" M 863.9 580.5 C 863.6 580.5 863.3 580.4 863.1 580.1 C 862.8 579.7 862.8 579 863.3 578.7 C 868 575.1 872.3 571 876.1 566.4 C 876.5 566 877.1 565.9 877.5 566.3 C 877.9 566.7 878 567.3 877.6 567.7 C 873.7 572.4 869.3 576.6 864.5 580.3 C 864.3 580.5 864.1 580.5 863.9 580.5 Z " fill="rgb(47,5,87)"/><path d=" M 885.1 556.1 C 884.9 556.1 884.8 556.1 884.6 556 C 884.1 555.7 883.9 555.1 884.2 554.6 C 890.9 542.7 894.5 529.2 894.5 515.5 C 894.5 511.1 894.1 506.7 893.4 502.4 C 893.3 501.9 893.7 501.3 894.2 501.2 C 894.8 501.1 895.3 501.5 895.4 502 C 896.1 506.4 896.5 510.9 896.5 515.4 C 896.5 529.5 892.9 543.4 886 555.5 C 885.8 556 885.5 556.1 885.1 556.1 Z " fill="rgb(47,5,87)"/><path d=" M 885.8 478.1 C 885.4 478.1 885.1 477.9 884.9 477.6 C 881.5 471.4 877.4 465.7 872.5 460.6 C 872.1 460.2 872.1 459.6 872.5 459.2 C 872.9 458.8 873.5 458.8 873.9 459.2 C 878.9 464.4 883.2 470.3 886.6 476.6 C 886.9 477.1 886.7 477.7 886.2 478 C 886.2 478.1 886 478.1 885.8 478.1 Z " fill="rgb(47,5,87)"/><path d=" M 764.9 453.5 C 764.6 453.5 764.3 453.4 764.1 453.1 C 763.8 452.7 763.8 452 764.3 451.7 C 768.2 448.6 772.5 445.8 776.9 443.5 C 777.4 443.2 778 443.4 778.3 443.9 C 778.6 444.4 778.4 445 777.9 445.3 C 773.6 447.6 769.5 450.3 765.6 453.3 C 765.4 453.4 765.1 453.5 764.9 453.5 Z " fill="rgb(139,153,165)"/><path d=" M 744.2 478.1 C 744 478.1 743.9 478.1 743.7 478 C 743.2 477.7 743 477.1 743.3 476.6 C 746.1 471.4 749.5 466.5 753.4 462.1 C 753.8 461.7 754.4 461.6 754.8 462 C 755.2 462.4 755.3 463 754.9 463.4 C 751.1 467.8 747.8 472.5 745.1 477.6 C 744.9 477.9 744.6 478.1 744.2 478.1 Z " fill="rgb(139,153,165)"/><path d=" M 752.1 504.7 C 752 504.7 752 504.7 751.9 504.7 C 751.4 504.6 751 504.1 751.1 503.5 C 754.4 486 764.9 470.3 780 460.7 C 780.5 460.4 781.1 460.5 781.4 461 C 781.7 461.5 781.6 462.1 781.1 462.4 C 766.5 471.8 756.3 486.9 753.1 503.9 C 753 504.4 752.5 504.7 752.1 504.7 Z " fill="rgb(139,153,165)"/><path d=" M 759 547.5 C 758.6 547.5 758.3 547.3 758.1 547 C 754 539.6 751.4 531.7 750.4 523.3 C 750.1 520.7 749.9 518.1 749.9 515.5 C 749.9 514.9 750.4 514.5 750.9 514.5 C 751.5 514.5 751.9 515 751.9 515.5 C 751.9 518 752.1 520.6 752.3 523 C 753.3 531.1 755.8 538.8 759.7 546 C 760 546.5 759.8 547.1 759.3 547.4 C 759.3 547.5 759.1 547.5 759 547.5 Z " fill="rgb(139,153,165)"/><path d=" M 863.9 557.9 C 863.7 557.9 863.4 557.8 863.2 557.7 C 862.8 557.3 862.7 556.7 863.1 556.3 C 869.6 548.6 874.2 539.4 876.5 529.7 C 876.6 529.2 877.2 528.8 877.7 528.9 C 878.2 529 878.6 529.6 878.5 530.1 C 876.2 540.2 871.4 549.7 864.7 557.6 C 864.4 557.8 864.1 557.9 863.9 557.9 Z " fill="rgb(47,5,87)"/><path d=" M 879 520.4 C 878.9 520.4 878.9 520.4 879 520.4 C 878.4 520.4 878 519.9 878 519.3 C 878.1 518 878.1 516.7 878.1 515.4 C 878.1 500.8 873 486.6 863.7 475.3 C 863.3 474.9 863.4 474.2 863.8 473.9 C 864.2 473.5 864.9 473.6 865.2 474 C 874.8 485.6 880.1 500.3 880.1 515.4 C 880.1 516.7 880.1 518.1 880 519.4 C 879.9 520 879.5 520.4 879 520.4 Z " fill="rgb(47,5,87)"/></g></svg>