<svg width="1024" height="1024" viewBox="0 0 1024 1024" fill="none" xmlns="http://www.w3.org/2000/svg">
<g filter="url(#filter0_d)">
<rect x="100" y="100" width="824" height="824" rx="184" fill="white"/>
<rect x="100" y="100" width="824" height="824" rx="184" fill="url(#paint0_linear)"/>
</g>
<circle cx="512" cy="512" r="318" transform="rotate(90 512 512)" fill="url(#paint1_radial)" fill-opacity="0.1"/>
<g filter="url(#filter1_dddddd)">
<path d="M402.318 579.628C388.962 579.628 380.868 590.141 380.868 602.676V604.698C363.465 590.545 343.228 581.245 318.944 581.245C264.711 581.245 221 625.32 221 679.101C221 732.881 264.711 776.552 318.944 776.552C343.228 776.552 363.465 767.656 380.868 752.695V757.547C380.868 770.082 388.962 780.596 402.318 780.596C415.675 780.596 425.793 770.082 425.793 757.547V602.676C425.793 590.141 415.675 579.628 402.318 579.628ZM318.944 729.242C291.018 729.242 267.949 707.002 267.949 679.101C267.949 651.2 291.018 628.555 318.944 628.555C346.466 628.555 369.535 651.2 369.535 679.101C369.535 707.002 346.466 729.242 318.944 729.242Z" fill="url(#paint2_linear)"/>
<path fill-rule="evenodd" clip-rule="evenodd" d="M734.332 595.402H673.623V475.508C673.623 380.746 601.905 303.654 513.755 303.654C425.605 303.654 353.887 380.746 353.887 475.508V595.402H293.178V475.508C293.178 347.305 392.13 243 513.755 243C635.38 243 734.332 347.305 734.332 475.508V595.402Z" fill="url(#paint3_linear)"/>
<path d="M701.008 781C645.156 781 599.421 735.711 599.421 679.505C599.421 623.703 645.156 578.01 701.008 578.01C756.861 578.01 802.595 623.703 803 679.909C802.595 735.711 756.861 781 701.008 781ZM701.008 627.747C672.273 627.747 649.203 650.795 649.203 679.505C649.203 708.215 672.273 731.263 701.008 731.263C729.744 731.263 752.814 708.215 752.814 679.505C752.814 650.795 729.744 627.747 701.008 627.747Z" fill="url(#paint4_linear)"/>
</g>
<defs>
<filter id="filter0_d" x="78" y="89" width="868" height="868" filterUnits="userSpaceOnUse" color-interpolation-filters="sRGB">
<feFlood flood-opacity="0" result="BackgroundImageFix"/>
<feColorMatrix in="SourceAlpha" type="matrix" values="0 0 0 0 0 0 0 0 0 0 0 0 0 0 0 0 0 0 127 0"/>
<feOffset dy="11"/>
<feGaussianBlur stdDeviation="11"/>
<feColorMatrix type="matrix" values="0 0 0 0 0 0 0 0 0 0 0 0 0 0 0 0 0 0 0.28 0"/>
<feBlend mode="normal" in2="BackgroundImageFix" result="effect1_dropShadow"/>
<feBlend mode="normal" in="SourceGraphic" in2="effect1_dropShadow" result="shape"/>
</filter>
<filter id="filter1_dddddd" x="194" y="243" width="636" height="598" filterUnits="userSpaceOnUse" color-interpolation-filters="sRGB">
<feFlood flood-opacity="0" result="BackgroundImageFix"/>
<feColorMatrix in="SourceAlpha" type="matrix" values="0 0 0 0 0 0 0 0 0 0 0 0 0 0 0 0 0 0 127 0"/>
<feOffset dy="4.13211"/>
<feGaussianBlur stdDeviation="1.69041"/>
<feColorMatrix type="matrix" values="0 0 0 0 0 0 0 0 0 0 0 0 0 0 0 0 0 0 0.045 0"/>
<feBlend mode="normal" in2="BackgroundImageFix" result="effect1_dropShadow"/>
<feColorMatrix in="SourceAlpha" type="matrix" values="0 0 0 0 0 0 0 0 0 0 0 0 0 0 0 0 0 0 127 0"/>
<feOffset dy="7.37098"/>
<feGaussianBlur stdDeviation="3.0154"/>
<feColorMatrix type="matrix" values="0 0 0 0 0 0 0 0 0 0 0 0 0 0 0 0 0 0 0.0536497 0"/>
<feBlend mode="normal" in2="effect1_dropShadow" result="effect2_dropShadow"/>
<feColorMatrix in="SourceAlpha" type="matrix" values="0 0 0 0 0 0 0 0 0 0 0 0 0 0 0 0 0 0 127 0"/>
<feOffset dy="13.7866"/>
<feGaussianBlur stdDeviation="5.63998"/>
<feColorMatrix type="matrix" values="0 0 0 0 0 0 0 0 0 0 0 0 0 0 0 0 0 0 0.0646969 0"/>
<feBlend mode="normal" in2="effect2_dropShadow" result="effect3_dropShadow"/>
<feColorMatrix in="SourceAlpha" type="matrix" values="0 0 0 0 0 0 0 0 0 0 0 0 0 0 0 0 0 0 127 0"/>
<feOffset dy="33"/>
<feGaussianBlur stdDeviation="13.5"/>
<feColorMatrix type="matrix" values="0 0 0 0 0 0 0 0 0 0 0 0 0 0 0 0 0 0 0.09 0"/>
<feBlend mode="normal" in2="effect3_dropShadow" result="effect4_dropShadow"/>
<feColorMatrix in="SourceAlpha" type="matrix" values="0 0 0 0 0 0 0 0 0 0 0 0 0 0 0 0 0 0 127 0"/>
<feOffset dy="4"/>
<feGaussianBlur stdDeviation="2"/>
<feColorMatrix type="matrix" values="0 0 0 0 0 0 0 0 0 0 0 0 0 0 0 0 0 0 0.25 0"/>
<feBlend mode="normal" in2="effect4_dropShadow" result="effect5_dropShadow"/>
<feColorMatrix in="SourceAlpha" type="matrix" values="0 0 0 0 0 0 0 0 0 0 0 0 0 0 0 0 0 0 127 0"/>
<feOffset dy="4"/>
<feGaussianBlur stdDeviation="2"/>
<feColorMatrix type="matrix" values="0 0 0 0 0 0 0 0 0 0 0 0 0 0 0 0 0 0 0.25 0"/>
<feBlend mode="normal" in2="effect5_dropShadow" result="effect6_dropShadow"/>
<feBlend mode="normal" in="SourceGraphic" in2="effect6_dropShadow" result="shape"/>
</filter>
<linearGradient id="paint0_linear" x1="100" y1="100" x2="924" y2="924" gradientUnits="userSpaceOnUse">
<stop stop-color="#242424"/>
<stop offset="1" stop-color="#3A3A3A"/>
</linearGradient>
<radialGradient id="paint1_radial" cx="0" cy="0" r="1" gradientUnits="userSpaceOnUse" gradientTransform="translate(512 512) rotate(90) scale(318)">
<stop stop-color="white"/>
<stop offset="0.265625" stop-color="white" stop-opacity="0.67"/>
<stop offset="1" stop-color="white" stop-opacity="0"/>
</radialGradient>
<linearGradient id="paint2_linear" x1="382.894" y1="283.282" x2="511.873" y2="781.033" gradientUnits="userSpaceOnUse">
<stop stop-color="#6FA6CE"/>
<stop offset="1" stop-color="#0275D8"/>
</linearGradient>
<linearGradient id="paint3_linear" x1="382.894" y1="283.282" x2="511.873" y2="781.033" gradientUnits="userSpaceOnUse">
<stop stop-color="#6FA6CE"/>
<stop offset="1" stop-color="#0275D8"/>
</linearGradient>
<linearGradient id="paint4_linear" x1="382.894" y1="283.282" x2="511.873" y2="781.033" gradientUnits="userSpaceOnUse">
<stop stop-color="#6FA6CE"/>
<stop offset="1" stop-color="#0275D8"/>
</linearGradient>
</defs>
</svg>
